<svg width="43" height="30" viewBox="0 0 43 30" fill="none" xmlns="http://www.w3.org/2000/svg">
<g clip-path="url(#clip0_1398_5809)">
<path d="M21.5702 18.8918L21.5304 18.9431L21.5221 18.9574C21.5034 18.9876 21.4854 19.0178 21.4666 19.0472V19.051C21.4402 19.0747 21.4151 19.0999 21.3916 19.1265C19.6844 21.2901 17.9775 23.4524 16.2709 25.6134C16.2444 25.6528 16.2215 25.6944 16.2026 25.738C16.2311 25.7606 16.2431 25.7772 16.2574 25.781C17.5849 26.1251 18.869 26.6204 20.0849 27.2573C20.6013 27.5244 21.1161 27.3418 21.4103 26.8429C21.4388 26.7946 21.5124 26.7727 21.5657 26.7388C21.5859 26.7878 21.6054 26.8361 21.625 26.8852L21.631 26.8973L21.6715 26.9576C21.9987 27.418 22.4745 27.5199 23.0336 27.212C24.6202 26.3372 26.3359 25.827 28.0965 25.4859C30.7008 24.9817 33.3335 24.8647 35.9768 24.9976C36.6222 25.0293 37.2669 25.0844 37.9131 25.107C38.1381 25.1141 38.3578 25.0373 38.5299 24.8915C38.7021 24.7456 38.8146 24.541 38.846 24.3168C38.8659 24.1693 38.8742 24.0204 38.8707 23.8715C38.8707 17.4311 38.8707 10.9884 38.8707 4.54348C38.8707 4.48235 38.8707 4.42046 38.8707 4.35933C38.8505 3.7329 38.5142 3.35477 37.8951 3.3027C37.0583 3.23553 36.2207 3.1759 35.3824 3.14043C34.6319 3.10797 33.8814 3.11401 33.1309 3.10345C33.1489 2.79099 33.1674 2.47903 33.1864 2.16757C33.1264 1.48831 33.0709 0.809048 32.9966 0.129786C32.9913 0.0784638 32.836 -0.0105947 32.7774 0.007519C32.15 0.200731 31.5286 0.412057 30.9012 0.618854C30.5762 0.787161 30.2392 0.935844 29.9255 1.12604C28.7247 1.85964 27.7325 2.82117 26.8725 3.92837C25.3484 4.27728 23.8858 4.85672 22.5346 5.64691C22.2456 5.81823 21.9912 6.04843 21.7218 6.2507L21.6752 6.31334V6.31711L21.6175 6.41749L21.5702 6.52542C21.5221 6.51183 21.4591 6.51334 21.4298 6.48315C21.2865 6.33221 21.1754 6.14503 21.0126 6.03031C20.1052 5.37369 19.0965 4.91104 18.0526 4.52084C16.3707 3.8929 14.6243 3.54421 12.8463 3.34043C10.2807 3.04767 7.69109 3.03577 5.12293 3.30496C4.44748 3.37515 4.13977 3.7261 4.13977 4.39631C4.13977 10.9374 4.13977 17.4764 4.13977 24.0134C4.13611 24.1358 4.14695 24.2582 4.17204 24.3779C4.30113 24.9063 4.72066 25.1568 5.39836 25.0927C7.69886 24.8757 10.0147 24.881 12.3142 25.1085C12.1836 25.2595 12.0478 25.4104 11.9225 25.5719C11.7363 25.8089 11.5052 25.8572 11.2072 25.8323C9.26974 25.6792 7.32255 25.6994 5.3886 25.8927C4.7777 25.9501 4.24484 25.7961 3.81255 25.344C3.44405 24.9576 3.34124 24.4859 3.34199 23.9659C3.34649 17.8978 3.34649 11.8302 3.34199 5.76314C3.34838 5.68452 3.34838 5.60552 3.34199 5.5269C3.3378 5.46859 3.31081 5.41432 3.26694 5.37596C2.77836 5.12086 2.29654 4.84764 1.7922 4.63103C0.891598 4.24008 -0.159104 5.1435 0.028521 6.17598C0.0824166 6.50046 0.249837 6.7949 0.500587 7.00619C1.14302 7.56092 1.43196 8.2515 1.42971 9.11416C1.4137 14.2967 1.41245 19.4792 1.42596 24.6617C1.43601 25.0397 1.36066 25.4151 1.20557 25.7596C1.05049 26.1041 0.819705 26.4087 0.530607 26.6505C0.0180139 27.1033 -0.129835 27.7275 0.127587 28.3109C0.254313 28.5885 0.465402 28.8184 0.730436 28.9676C0.995469 29.1168 1.30076 29.1776 1.60232 29.1411C2.20948 29.0701 2.70106 28.5848 2.80313 27.9244C2.83014 27.7494 2.90219 27.6927 3.0643 27.6678C3.75551 27.5599 4.44072 27.4075 5.13494 27.3305C6.8033 27.1456 8.47617 26.9931 10.1468 26.8293C10.2175 26.8271 10.2882 26.8301 10.3584 26.8384C9.58691 27.4973 8.79363 28.0829 7.86226 28.4445C7.65855 28.5243 7.44659 28.5811 7.23034 28.6135C6.51661 28.7124 6.13986 28.4052 6.07306 27.6943C6.07306 27.6792 6.05655 27.6656 6.03103 27.6188C5.8299 27.6377 5.61225 27.6452 5.40136 27.6844C5.34207 27.695 5.27078 27.7939 5.25652 27.8626C5.10642 28.5886 5.3886 29.2407 6.02878 29.6128C6.5695 29.9342 7.20289 30.0609 7.82473 29.972C8.77973 29.8358 9.69819 29.5097 10.5265 29.0128C11.5544 28.4112 12.5221 27.711 13.416 26.9222C13.4838 26.8553 13.5651 26.804 13.6546 26.7718C13.744 26.7396 13.8392 26.7273 13.9338 26.7357C15.1099 26.8203 16.2866 26.8965 17.4094 26.9727C16.4555 26.5976 15.3943 26.4021 14.3181 26.1599C14.35 26.1077 14.3849 26.0573 14.4224 26.0089C15.4971 24.824 16.5936 23.6542 17.6435 22.4466C19.9063 19.8367 22.0407 17.1249 23.971 14.2569C24.5609 13.3762 25.1245 12.4765 25.6867 11.5784C25.8008 11.3965 25.8983 11.3663 26.0507 11.5029C26.119 11.5663 26.182 11.6357 26.2473 11.7029C26.11 11.9459 25.9779 12.192 25.8353 12.432C25.4833 13.0237 25.1268 13.6131 24.7726 14.2033L24.7298 14.2562L24.7238 14.2652L24.666 14.3603L24.6247 14.4154L24.618 14.4267L24.5609 14.5218L24.5219 14.5785C23.8605 15.5571 23.198 16.5347 22.5346 17.5114C22.2344 17.9514 21.9244 18.3853 21.619 18.8216L21.5709 18.8903L21.5702 18.8918ZM25.5861 26.9576C25.6762 27.0029 25.7077 27.0331 25.7325 27.0331C27.0533 26.7871 28.3907 26.7471 29.7281 26.7372C31.9334 26.7251 34.137 26.858 36.325 27.135C37.5311 27.2859 38.7266 27.4905 39.9319 27.6686C40.0866 27.6912 40.1729 27.7441 40.1991 27.926C40.2952 28.5796 40.7763 29.0709 41.3647 29.1464C41.9936 29.2264 42.6052 28.9011 42.8604 28.3501C42.9939 28.0698 43.0307 27.7528 42.965 27.4491C42.8994 27.1454 42.735 26.8724 42.4979 26.6731C41.8615 26.1086 41.5703 25.4217 41.5725 24.5598C41.5866 19.414 41.5866 14.2678 41.5725 9.12096C41.5725 8.26659 41.8555 7.59262 42.4731 7.02732C43.0608 6.49221 43.1584 5.73219 42.7426 5.13142C42.3193 4.51857 41.6769 4.37669 40.9301 4.74122C40.5849 4.91104 40.2599 5.12387 39.9094 5.28086C39.7083 5.37067 39.6483 5.48087 39.649 5.69446C39.6573 7.54431 39.6543 9.39266 39.6535 11.244C39.6535 15.4882 39.6535 19.7315 39.6535 23.9742C39.6535 24.3689 39.5927 24.7417 39.3758 25.0791C38.9345 25.7636 38.2854 25.9667 37.5138 25.8897C35.6579 25.7109 33.7906 25.6821 31.9301 25.8036C30.2334 25.8945 28.5495 26.15 26.9017 26.5667C26.4837 26.6776 26.0619 26.8157 25.5861 26.9576Z" fill="#040206"/>
<path d="M12.3127 25.1086C10.0132 24.881 7.69735 24.8757 5.39686 25.0927C4.72141 25.1569 4.29962 24.9101 4.17054 24.378C4.14544 24.2582 4.13461 24.1358 4.13827 24.0135C4.13827 17.4724 4.13827 10.9334 4.13827 4.39636C4.13827 3.72615 4.44522 3.3752 5.12142 3.30501C7.69036 3.03591 10.2808 3.04806 12.8471 3.34124C14.625 3.54502 16.3744 3.8937 18.0533 4.52164C19.0973 4.91109 20.1059 5.37374 21.0133 6.03112C21.1762 6.14886 21.2872 6.33754 21.4306 6.48396C21.4598 6.51415 21.5229 6.51264 21.5709 6.52547C21.5364 6.72925 21.4734 6.93152 21.4726 7.1353C21.4651 8.90591 21.4681 10.6765 21.4726 12.4479C21.3413 12.5151 21.2107 12.583 21.0718 12.6554C21.0786 12.7973 21.0861 12.9626 21.0921 13.0894L21.4786 13.2834C21.4786 13.7113 21.4681 14.1385 21.4786 14.5664C21.4786 14.6419 21.5537 14.7174 21.5942 14.7928L19.065 17.8042C19.0685 17.703 19.0427 17.6029 18.9906 17.5162C18.9384 17.4294 18.8623 17.3599 18.7715 17.3159C18.4886 17.165 18.2102 16.9899 17.9107 16.8759C17.3103 16.6495 16.6994 16.4533 16.0923 16.2442C16.1283 16.208 16.1613 16.1687 16.2003 16.134C16.8675 15.5665 17.4161 14.9189 17.6263 14.0389C17.6527 13.9792 17.6887 13.9244 17.7329 13.8766C17.8897 14.1838 18.3933 14.3174 18.713 14.1377C19.113 13.9113 19.2714 13.4268 19.0252 13.0668C18.758 12.6751 18.337 12.4977 17.8995 12.3656L17.7869 11.8215C17.899 11.6881 18.011 11.5548 18.1231 11.4214C18.5734 10.8871 19.002 10.3339 19.2339 9.65989C19.4282 9.09383 19.3412 8.80175 18.8976 8.47571C18.8226 8.37684 18.7768 8.23042 18.68 8.1874C17.964 7.86814 17.254 7.527 16.5125 7.27115C14.6363 6.62283 12.6722 6.41301 10.7014 6.32622C9.63044 6.27942 8.55422 6.34584 7.481 6.36924C6.99167 6.37981 6.67121 6.75491 6.71774 7.23869C6.75977 7.66889 7.22733 8.01003 7.67013 7.9323C7.74631 7.91367 7.82386 7.9013 7.90203 7.89532C9.64695 7.87192 11.3919 7.8772 13.1263 8.11192C13.2531 8.12853 13.3709 8.20702 13.4925 8.25683C13.3424 8.27419 13.1983 8.29457 13.0505 8.30891C12.0388 8.40552 11.1412 8.78364 10.444 9.52177C10.059 9.92857 9.77829 10.4335 9.45032 10.8946C9.36878 10.8676 9.28441 10.8502 9.1989 10.8426C8.6075 10.8554 8.01386 10.8463 7.42696 10.9037C7.00894 10.9444 6.67646 11.2252 6.71474 11.7679C6.73036 11.9611 6.8186 12.1411 6.96151 12.2712C7.10442 12.4013 7.29126 12.4718 7.484 12.4683C8.01386 12.46 8.54371 12.4343 9.07282 12.4162C9.10784 12.8127 9.14261 13.2094 9.17714 13.6064C9.08278 13.6827 8.9956 13.7676 8.91671 13.86C8.54746 14.3762 8.18722 14.8985 7.82323 15.4185C7.72792 15.4185 7.63185 15.4125 7.53654 15.4185C7.07873 15.454 6.738 15.7431 6.71699 16.1099C6.67646 16.7891 7.31739 17.242 7.96508 16.9733C7.99735 16.9597 8.01311 16.9061 8.04013 16.8714L8.66454 16.9869H8.81915L9.23567 16.9499L9.343 16.9303L9.71224 16.8804L9.76328 16.9559L9.81206 16.8555L9.92163 16.8291C9.92163 17.0223 10.0642 16.9861 10.1828 16.9929C10.7637 17.0261 11.3453 17.0684 11.927 17.0918C12.2062 17.1038 12.4876 17.0918 12.7675 17.088L12.8643 17.1001C12.8981 17.1325 12.9296 17.1891 12.9672 17.1944C13.1766 17.2216 13.3882 17.2367 13.5991 17.2556C13.8137 17.2925 14.0291 17.3235 14.243 17.3665C15.5144 17.6216 16.7542 17.9703 17.8942 18.6141C18.003 18.676 18.1389 18.6895 18.2627 18.7265L16.3204 20.9417C16.2364 20.873 16.1621 20.7726 16.066 20.7402C15.6802 20.6134 15.287 20.507 14.8967 20.393C15.0123 20.2209 14.9087 20.1326 14.7646 20.0745C14.6819 20.0461 14.6101 19.9925 14.5592 19.921C14.5083 19.8496 14.481 19.7639 14.4809 19.676C14.4749 19.5922 14.4104 19.513 14.3721 19.4315C14.2911 19.473 14.2107 19.5152 14.1289 19.5552C14.0242 19.6176 13.9129 19.6682 13.7972 19.7062C13.6675 19.7246 13.5363 19.7309 13.4055 19.725L13.5 20.0911C13.5045 20.1077 13.5075 20.1251 13.5113 20.1424C13.3612 20.1424 13.2111 20.1515 13.0662 20.1424C12.312 20.0798 11.5585 20.0043 10.8035 19.9484C10.4988 19.9266 10.1911 19.9424 9.88486 19.9424C9.10959 19.9424 8.33507 19.9424 7.5583 19.9515C7.46229 19.9581 7.36775 19.9787 7.27762 20.0126C7.08245 20.0702 6.9161 20.1997 6.81187 20.3754C6.70764 20.551 6.67321 20.7597 6.71549 20.9598C6.76727 21.2617 7.13277 21.5274 7.50201 21.5228C7.93806 21.5168 8.37485 21.4813 8.81014 21.4904C9.68222 21.5077 10.5551 21.5258 11.4249 21.5825C12.1454 21.63 12.8636 21.7183 13.5796 21.8149C14.1485 21.8904 14.7128 22.0074 15.2795 22.1062C15.2682 22.1297 15.2546 22.1519 15.2389 22.1727C14.3308 23.1146 13.4215 24.0552 12.5109 24.9946C12.4505 25.0418 12.3838 25.0802 12.3127 25.1086Z" fill="#E0D7F9"/>
<path d="M21.6197 18.8239C21.9252 18.3876 22.2351 17.9537 22.5353 17.5136C23.2003 16.5385 23.863 15.5614 24.5234 14.5822L24.5609 14.5219L24.6172 14.429L24.624 14.4177C24.6375 14.3988 24.6517 14.3807 24.6652 14.3626L24.723 14.2675L24.729 14.2585L24.7718 14.2056C24.8645 14.1835 24.955 14.1527 25.042 14.1136C26.0747 13.5173 27.1922 13.1528 28.3532 12.9203C28.9409 12.8033 29.5375 12.7264 30.1304 12.6313C30.1064 12.7445 30.0816 12.8577 30.0553 12.9709L30.1019 13.0109L30.586 12.5716C31.6029 12.5211 32.6191 12.4645 33.636 12.4207C34.0458 12.4041 34.457 12.4124 34.8676 12.4207C35.0755 12.4245 35.2841 12.4735 35.4912 12.4652C35.9348 12.4486 36.2612 12.1482 36.2703 11.7769C36.283 11.2788 36.0196 10.9361 35.5738 10.8969C35.2188 10.8659 34.8616 10.8403 34.5051 10.8425C33.4671 10.8508 32.4299 10.8735 31.392 10.8901C31.3875 10.4652 31.4175 10.0365 31.3695 9.61608C31.3214 9.1957 31.2141 8.77606 30.9117 8.44398L31.3222 7.88321C31.4104 7.91351 31.5018 7.93327 31.5946 7.94208C31.846 7.93529 32.0975 7.89755 32.3496 7.89529C33.215 7.88925 34.0795 7.89529 34.9449 7.89529C35.0409 7.89529 35.137 7.91415 35.2323 7.90736C35.4357 7.89302 35.6518 7.90283 35.8395 7.83717C36.1779 7.71943 36.3288 7.36546 36.2673 6.94734C36.232 6.70809 35.916 6.40544 35.6458 6.37525C35.3781 6.34244 35.1088 6.32355 34.839 6.31864C33.9655 6.31034 33.0911 6.31261 32.2175 6.31034C32.2438 6.22807 32.2648 6.14354 32.2978 6.06354C32.6934 5.1088 33.0123 4.13293 33.1234 3.09894C33.8739 3.1095 34.6244 3.10347 35.3749 3.13592C36.2132 3.17139 37.0508 3.23102 37.8876 3.29819C38.5082 3.34876 38.8445 3.72688 38.8632 4.35482C38.8632 4.41595 38.8632 4.47784 38.8632 4.53897C38.8632 10.9794 38.8632 17.4221 38.8632 23.867C38.8667 24.0159 38.8584 24.1648 38.8385 24.3123C38.8072 24.5338 38.6967 24.7363 38.5275 24.8816C38.3584 25.027 38.1423 25.1053 37.9199 25.1018C37.2737 25.0791 36.629 25.0263 35.9836 24.9923C33.338 24.8595 30.7053 24.9765 28.1033 25.4806C26.3396 25.8218 24.627 26.332 23.0404 27.2067C22.4813 27.5146 22.0055 27.4128 21.6782 26.9524L21.6377 26.892L21.6317 26.8799L21.5724 26.7335C21.5387 26.2573 21.4794 25.781 21.4764 25.3048C21.4651 23.2194 21.4704 21.1341 21.4689 19.0488V19.045L21.5244 18.9552L21.5326 18.9408C21.5454 18.9235 21.5589 18.9069 21.5724 18.8895L21.6197 18.8239ZM27.8631 17.5823C27.8361 17.6835 27.8083 17.7846 27.7821 17.8842C27.5727 18.6714 27.5532 19.4526 27.8609 20.2239L27.9247 20.4692C27.256 20.6662 26.5738 20.8254 25.9231 21.073C25.3317 21.3045 24.7582 21.58 24.2074 21.8971C23.7812 22.1356 23.7444 22.7349 24.0866 23.073C24.359 23.3417 24.672 23.3825 25.0495 23.2013C25.4495 23.0089 25.845 22.8051 26.2503 22.6277C27.1111 22.2504 28.0245 22.0564 28.9424 21.8836C29.1 21.9907 29.2546 22.1039 29.4174 22.2036C30.342 22.7757 31.332 22.9538 32.3924 22.6813C32.5102 22.6534 32.6318 22.6345 32.7466 22.596C33.3838 22.3847 33.9009 21.9877 34.37 21.5198C34.7527 21.5198 35.1355 21.5243 35.5183 21.5243C35.901 21.5243 36.2425 21.2337 36.2688 20.9054C36.3085 20.433 36.0811 20.0941 35.6684 20.0043C35.5183 19.9711 35.3681 19.9288 35.2181 19.8918C35.2263 19.8405 35.2353 19.7892 35.2443 19.7409C35.2533 19.7046 35.2631 19.6654 35.2721 19.6322C35.2826 19.5454 35.2923 19.4594 35.3029 19.3726L35.3231 19.211V18.7408L35.2961 18.5265C35.2886 18.4571 35.2803 18.3876 35.2728 18.3189L35.2451 18.2103L35.2075 18.1597L34.8323 17.0774C35.0694 17.0525 35.3059 17.017 35.5445 17.0019C35.9633 16.9793 36.235 16.6751 36.2778 16.2646C36.3205 15.854 35.8928 15.4343 35.4267 15.4215C34.7115 15.4049 33.997 15.3838 33.2818 15.3717C33.1892 15.3801 33.0978 15.3988 33.0093 15.4276C32.8667 15.386 32.7241 15.3423 32.5808 15.3038C31.6854 15.0607 30.8043 15.057 29.9488 15.466L29.3424 15.7453C29.1993 15.7349 29.0557 15.7375 28.9131 15.7528C27.6605 15.9936 26.4109 16.257 25.2461 16.8012C24.8425 16.9872 24.4554 17.2073 24.0889 17.4593C23.8284 17.6404 23.7969 18.0442 23.9448 18.3454C24.0148 18.4874 24.129 18.6026 24.2699 18.6737C24.4108 18.7448 24.5709 18.7678 24.726 18.7393C24.9039 18.7002 25.0756 18.6367 25.2364 18.5506C26.0634 18.1077 26.9474 17.7818 27.8631 17.5823ZM23.8262 20.0858C24.0161 20.0911 24.0896 19.9982 24.0093 19.8594C23.8757 19.6239 23.896 19.4277 24.0468 19.2073C24.1534 19.0525 24.0551 18.9318 23.8847 18.9733C23.6213 19.0382 23.4577 18.9454 23.3023 18.7469C23.1928 18.6057 23.0584 18.6276 23.0299 18.8186C22.9924 19.0699 22.8798 19.2276 22.6321 19.3107C22.4573 19.3695 22.4483 19.5107 22.6156 19.5914C22.7209 19.6329 22.8103 19.7071 22.8706 19.8032C22.931 19.8993 22.9592 20.0124 22.9511 20.1258C22.9511 20.3009 23.0772 20.3711 23.2138 20.2345C23.4037 20.0405 23.5965 19.956 23.8284 20.0858H23.8262Z" fill="#E0D7F9"/>
<path d="M16.3204 20.9417L18.2567 18.7318L18.3152 18.6714L18.4286 18.5205L19.062 17.8027L21.5912 14.7913C21.6126 14.7766 21.6325 14.7596 21.6505 14.7408C22.6832 13.4366 23.7156 12.1319 24.7478 10.8267C24.7694 10.7865 24.7858 10.7436 24.7966 10.6992C24.6014 10.5671 24.4251 10.4192 24.5377 10.1595C24.6217 9.96405 24.7996 9.95121 24.9842 9.97838L26.9715 11.2765L27.0871 11.5784C26.9167 11.9339 26.7757 11.9754 26.4372 11.7769C26.3765 11.748 26.3135 11.7243 26.2488 11.706C26.1835 11.6388 26.1205 11.5694 26.0522 11.506C25.9021 11.3663 25.8022 11.3965 25.6882 11.5814C25.1245 12.4796 24.5624 13.3792 23.971 14.2585C22.0407 17.1235 19.9078 19.8352 17.6435 22.4466C16.5928 23.6542 15.4971 24.8256 14.4224 26.0143C14.3849 26.0626 14.35 26.113 14.3181 26.1652C15.3943 26.4075 16.4585 26.603 17.4079 26.9743C16.2821 26.8988 15.1083 26.8233 13.9323 26.7373C13.8377 26.7289 13.7424 26.7412 13.653 26.7734C13.5636 26.8055 13.4822 26.8568 13.4145 26.9237C12.521 27.712 11.5538 28.4116 10.5265 29.0128C9.69847 29.5111 8.77999 29.8385 7.82473 29.9759C7.20159 30.067 6.56618 29.9416 6.02353 29.6204C5.38335 29.2483 5.09891 28.5962 5.25126 27.8702C5.26552 27.8015 5.33682 27.7026 5.39611 27.692C5.607 27.6528 5.82464 27.6452 6.02578 27.6264C6.05129 27.6694 6.0663 27.683 6.06781 27.7018C6.1346 28.4128 6.51135 28.72 7.22508 28.6211C7.44133 28.5886 7.65329 28.5319 7.857 28.4521C8.78837 28.0905 9.58316 27.5049 10.3532 26.846C10.2829 26.8377 10.2122 26.8347 10.1415 26.8369C8.47091 27.0007 6.79804 27.1532 5.12968 27.3381C4.43546 27.4135 3.75026 27.5645 3.05904 27.6754C2.89694 27.7003 2.82489 27.7569 2.79787 27.932C2.6943 28.5924 2.20272 29.0777 1.59707 29.1487C1.29551 29.1852 0.990213 29.1244 0.725179 28.9752C0.460145 28.826 0.249056 28.5961 0.122331 28.3185C-0.135092 27.7328 0.0127572 27.1056 0.52535 26.658C0.814448 26.4163 1.04523 26.1116 1.20032 25.7672C1.3554 25.4227 1.43076 25.0473 1.4207 24.6693C1.41269 19.4868 1.41394 14.3043 1.42445 9.12176C1.42445 8.2591 1.13776 7.56851 0.49533 7.01378C0.24458 6.80249 0.0771598 6.50806 0.0232642 6.18357C-0.16211 5.14581 0.88484 4.24239 1.78844 4.63485C2.29278 4.85297 2.7746 5.12468 3.26318 5.37978C3.30706 5.41814 3.33404 5.47241 3.33823 5.53072C3.34462 5.60934 3.34462 5.68834 3.33823 5.76696C3.33823 11.834 3.33823 17.9016 3.33823 23.9697C3.33823 24.4897 3.4403 24.9614 3.80879 25.3478C4.24033 25.8007 4.77319 25.9516 5.38485 25.8965C7.31879 25.7032 9.26599 25.683 11.2035 25.8361C11.5037 25.861 11.7288 25.8127 11.9187 25.5758C12.0441 25.4173 12.1799 25.2663 12.3105 25.1124C12.3821 25.0838 12.4493 25.0452 12.5101 24.9976C13.4217 24.0597 14.3311 23.1191 15.2382 22.1757C15.2539 22.1549 15.2674 22.1327 15.2787 22.1093L16.3204 20.9417Z" fill="#7F56D9"/>
<path d="M25.5861 26.9577C26.0642 26.8158 26.4867 26.6777 26.91 26.5667C28.5578 26.1501 30.2417 25.8945 31.9384 25.8037C33.7989 25.6821 35.6661 25.7109 37.5221 25.8897C38.2936 25.9652 38.9428 25.7637 39.3841 25.0791C39.601 24.7418 39.6618 24.3689 39.6618 23.9742C39.6588 19.7311 39.6588 15.4877 39.6618 11.2441C39.6618 9.39422 39.6655 7.54587 39.6573 5.6945C39.6573 5.48091 39.7166 5.37072 39.9177 5.2809C40.2682 5.12392 40.5931 4.91108 40.9384 4.74127C41.6889 4.37522 42.3275 4.51862 42.7508 5.13147C43.1666 5.73525 43.069 6.48999 42.4814 7.02736C41.8607 7.59266 41.5748 8.26664 41.5808 9.121C41.5988 14.2678 41.5988 19.4141 41.5808 24.5599C41.5808 25.421 41.8697 26.1078 42.5062 26.6731C42.7424 26.8725 42.906 27.145 42.9713 27.4481C43.0367 27.7511 43 28.0674 42.8672 28.3471C42.612 28.8981 42.0003 29.2234 41.3714 29.1434C40.783 29.0679 40.3019 28.5766 40.2059 27.923C40.1796 27.7434 40.0933 27.6883 39.9387 27.6656C38.7379 27.4875 37.5371 27.2815 36.3318 27.132C34.1438 26.855 31.9401 26.7222 29.7349 26.7343C28.3975 26.7441 27.0601 26.7841 25.7392 27.0301C25.7077 27.0339 25.6762 27.003 25.5861 26.9577Z" fill="#7F56D9"/>
<path d="M31.3267 7.88551L30.9162 8.44703L29.3641 10.2584L28.9649 10.589L27.0646 9.32705C27.1464 9.20479 27.2192 9.07573 27.3108 8.96101C27.7896 8.35722 28.2782 7.76701 28.751 7.16172C28.8348 7.05415 28.8796 6.921 28.8778 6.78435C28.8736 6.69059 28.8351 6.60171 28.7697 6.53472C28.7043 6.46773 28.6167 6.42736 28.5236 6.42132C28.3082 6.39566 28.1581 6.49151 28.0575 6.68548C27.6838 7.406 27.3063 8.12526 26.925 8.84327C26.8642 8.93513 26.794 9.02037 26.7156 9.09761L24.8311 7.86739C24.8671 7.70814 24.9024 7.54889 24.9384 7.38964C25.2937 6.67466 25.6484 5.95967 26.0026 5.24468C26.0071 5.21973 26.0071 5.19416 26.0026 5.16921L26.8747 3.9239C27.7348 2.8167 28.7285 1.85517 29.9278 1.12156C30.2392 0.931369 30.5762 0.782686 30.9034 0.61438C30.9552 0.618908 31.007 0.624947 31.0588 0.625702C31.5291 0.624604 31.9878 0.772754 32.3695 1.04906C32.7513 1.32536 33.0366 1.71574 33.1849 2.16461C33.1664 2.47606 33.1479 2.78802 33.1294 3.10048C33.0161 4.13447 32.6971 5.11034 32.3038 6.06508C32.2708 6.14509 32.2498 6.22962 32.2235 6.31264L31.3267 7.88551ZM28.2331 4.26277C28.231 4.51782 28.2796 4.77073 28.376 5.00663C28.4725 5.24253 28.6148 5.45666 28.7947 5.63645C28.9746 5.81624 29.1884 5.95806 29.4236 6.05357C29.6588 6.14908 29.9106 6.19636 30.1642 6.19263C31.1841 6.19263 32.0404 5.32922 32.0562 4.29372C32.0558 3.78758 31.8572 3.30195 31.5034 2.94202C31.1495 2.58208 30.6689 2.3768 30.1657 2.37065C29.9146 2.36473 29.6648 2.40924 29.431 2.50159C29.1972 2.59394 28.9841 2.73226 28.8042 2.90846C28.6242 3.08467 28.481 3.2952 28.3829 3.52775C28.2849 3.7603 28.234 4.01019 28.2331 4.26277Z" fill="#F4F2F4"/>
<path d="M21.4643 19.0503C21.4643 21.1356 21.4606 23.221 21.4719 25.3063C21.4719 25.7825 21.5341 26.2588 21.5679 26.735C21.5146 26.769 21.4411 26.7909 21.4126 26.8392C21.1184 27.338 20.6035 27.5184 20.0872 27.2535C18.8713 26.6167 17.5871 26.1214 16.2596 25.7773C16.2454 25.7773 16.2334 25.7569 16.2048 25.7342C16.2238 25.6907 16.2466 25.649 16.2731 25.6097C17.9788 23.4461 19.6857 21.2838 21.3938 19.1227C21.416 19.0973 21.4396 19.0731 21.4643 19.0503Z" fill="#E0D7F9"/>
<path d="M24.9362 7.38963C24.9002 7.54887 24.8649 7.70812 24.8289 7.86737L24.711 7.99945C24.5504 8.08549 24.3831 8.16172 24.23 8.26134C23.8915 8.48097 23.7609 8.95268 23.9403 9.27118C24.0453 9.45651 24.2172 9.59407 24.4204 9.65533C24.6236 9.7166 24.8424 9.69688 25.0315 9.60025C25.1415 9.55297 25.254 9.5119 25.3685 9.47723L24.9805 9.98214C24.7958 9.95497 24.618 9.9678 24.5339 10.1633C24.4213 10.4229 24.5977 10.5708 24.7928 10.7029C24.782 10.7473 24.7656 10.7902 24.744 10.8305C23.7139 12.1341 22.6819 13.4401 21.6482 14.7483C21.6302 14.7671 21.6104 14.7841 21.5889 14.7989C21.5484 14.7234 21.4749 14.6479 21.4734 14.5724C21.4636 14.1453 21.4734 13.7181 21.4734 13.2894L21.8396 12.8683L21.4644 12.4531C21.4644 10.6818 21.4606 8.91117 21.4644 7.14056C21.4644 6.93678 21.5281 6.73451 21.5627 6.53074L21.6099 6.42281L21.6677 6.32243V6.31865L21.7143 6.25601C21.9837 6.05223 22.2396 5.82204 22.5271 5.65222C23.8787 4.85998 25.3421 4.27875 26.8672 3.92841L25.9959 5.17297C25.812 5.17297 25.6281 5.16617 25.445 5.17297C24.0191 5.21448 22.7019 6.17073 22.2254 7.51265C22.1961 7.59416 22.1781 7.6802 22.1338 7.84096C23.0547 7.18585 23.9448 6.90961 24.9362 7.38963Z" fill="#E0D7F9"/>
<path d="M26.2488 11.706C26.3135 11.7243 26.3765 11.748 26.4372 11.7769C26.7757 11.9754 26.9167 11.9339 27.0871 11.5784C27.1222 11.5794 27.1573 11.5782 27.1922 11.5746C28.0305 11.4176 28.8696 11.2629 29.7064 11.0961C29.7709 11.0833 29.8204 10.9897 29.8767 10.9331C30.2152 11.4614 30.24 12.0365 30.1326 12.632C29.5397 12.7271 28.9431 12.8041 28.3555 12.9211C27.1944 13.1535 26.0769 13.5181 25.0442 14.1143C24.9572 14.1534 24.8668 14.1843 24.7741 14.2064C25.1283 13.6162 25.4848 13.0267 25.8368 12.435C25.9794 12.195 26.1115 11.949 26.2488 11.706Z" fill="#B5A2E9"/>
<path d="M33.1857 2.16383C33.0374 1.71497 32.752 1.32459 32.3703 1.04829C31.9886 0.77198 31.5299 0.623829 31.0595 0.624927C31.0077 0.624927 30.9559 0.618135 30.9042 0.613607C31.5278 0.406809 32.1492 0.195482 32.7804 0.00226995C32.839 -0.0158437 32.9943 0.0732159 32.9996 0.124538C33.0701 0.803046 33.1256 1.48382 33.1857 2.16383Z" fill="#DE68A3"/>
<path d="M21.5672 26.7335L21.6265 26.8799C21.6069 26.8309 21.5874 26.7826 21.5672 26.7335Z" fill="#C7A0C9"/>
<path d="M21.5221 18.9575C21.5034 18.9876 21.4854 19.0178 21.4666 19.0473C21.4839 19.0178 21.5034 18.9876 21.5221 18.9575Z" fill="#C7A0C9"/>
<path d="M21.7248 6.25226C21.709 6.27264 21.694 6.29377 21.6782 6.3149C21.694 6.29528 21.709 6.27264 21.7248 6.25226Z" fill="#C8A1CB"/>
<path d="M21.5702 18.8918C21.5567 18.9091 21.5432 18.9257 21.5304 18.9431L21.5702 18.8918Z" fill="#C7A0C9"/>
<path d="M9.44582 10.8992C9.77379 10.438 10.0545 9.93309 10.4395 9.52629C11.1367 8.78816 12.0343 8.41004 13.046 8.31343C13.1961 8.29909 13.3409 8.27871 13.488 8.26135L13.7462 8.26664L14.8517 8.52777C14.7939 8.6123 14.7421 8.70212 14.6768 8.77986C14.4517 9.04628 14.222 9.30817 13.9931 9.57158C13.8175 9.77234 13.7822 10.0131 13.9128 10.2267C14.0629 10.4697 14.3106 10.3739 14.5305 10.3112C14.5464 10.3049 14.5627 10.2996 14.5793 10.2954C14.7931 10.269 15.007 10.2199 15.2202 10.2244C15.4611 10.2312 15.6315 10.4591 15.6405 10.7052C15.6532 11.069 15.4153 11.2697 15.1691 11.4765C14.5687 11.9845 14.0501 12.5581 13.6989 13.2668C13.452 13.7649 13.5638 14.0215 14.0742 14.2162L12.9116 14.9181C12.8891 14.5408 12.7218 14.4298 12.3863 14.5808C12.2992 14.62 12.2249 14.703 12.1356 14.7196C11.9818 14.7476 11.7746 14.8019 11.6756 14.7287C11.5765 14.6555 11.545 14.42 11.5893 14.2917C11.696 14.0066 11.8311 13.733 11.9923 13.4751C12.2174 13.0939 12.4921 12.7384 12.6947 12.343C12.7608 12.2162 12.727 11.9301 12.6317 11.8562C12.5364 11.7822 12.2715 11.8154 12.1364 11.8962C11.6636 12.1769 11.2215 12.509 10.7524 12.7966C10.6504 12.8592 10.4853 12.82 10.3494 12.8275C10.3494 12.6886 10.3187 12.5445 10.3494 12.4124C10.3734 12.2977 10.477 12.2026 10.5175 12.0894C10.6129 11.823 10.4673 11.629 10.1956 11.6962C9.98243 11.749 9.78505 11.878 9.58842 11.9875C9.45103 12.0722 9.31802 12.1639 9.1899 12.2622C9.18239 12.0962 9.17714 11.992 9.17264 11.8848C9.2647 11.5563 9.35576 11.2277 9.44582 10.8992Z" fill="#E84A9A"/>
<path d="M13.7462 8.26434L13.488 8.25906C13.3664 8.20924 13.2486 8.13075 13.1218 8.11415C11.3874 7.87943 9.64245 7.87414 7.89753 7.89754C7.81936 7.90353 7.7418 7.9159 7.66563 7.93452C7.22283 8.00999 6.75527 7.67112 6.71324 7.24092C6.66671 6.75713 6.98717 6.38203 7.4765 6.37146C8.54972 6.34807 9.62594 6.28165 10.6969 6.32844C12.6677 6.41524 14.6288 6.62505 16.508 7.27337C17.248 7.52923 17.9595 7.87037 18.6755 8.18962C18.7723 8.23264 18.8218 8.37906 18.8931 8.47793C18.5032 8.34409 18.0836 8.32369 17.6826 8.41906C17.1917 8.52925 16.7069 8.66963 16.2191 8.79643C16.015 8.73454 15.8131 8.66209 15.6052 8.61529C15.4093 8.57076 15.2067 8.55416 15.0048 8.52548L14.9042 8.50284C14.5532 8.30175 14.1476 8.21822 13.7462 8.26434Z" fill="#B5A2E9"/>
<path d="M16.3204 20.9417L15.281 22.1055C14.7143 22.0066 14.15 21.8904 13.5811 21.8141C12.8651 21.7175 12.1469 21.6292 11.4264 21.5817C10.5566 21.5251 9.68373 21.5062 8.81164 21.4896C8.37635 21.4805 7.93956 21.516 7.50352 21.5221C7.13427 21.5266 6.76878 21.2579 6.71699 20.959C6.67472 20.759 6.70914 20.5502 6.81337 20.3746C6.91761 20.199 7.08395 20.0694 7.27912 20.0118C7.36925 19.9779 7.4638 19.9573 7.55981 19.9507C8.33508 19.9432 9.10959 19.9432 9.88636 19.9416C10.1926 19.9416 10.5003 19.9258 10.805 19.9477C11.56 20.0035 12.3135 20.079 13.0677 20.1416C13.2178 20.1537 13.3679 20.1416 13.5128 20.1416C13.4951 20.2556 13.4675 20.3677 13.4302 20.4767C13.3289 20.7137 13.3777 20.8164 13.6164 20.7681C13.855 20.7198 13.9916 20.7968 14.1417 20.9605C14.2918 21.1243 14.4164 21.0896 14.4367 20.8737C14.4644 20.5718 14.64 20.4503 14.899 20.39C15.2892 20.5039 15.6825 20.6103 16.0682 20.7371C16.1621 20.7726 16.2364 20.873 16.3204 20.9417Z" fill="#B5A2E9"/>
<path d="M17.7314 13.8788C17.6872 13.9267 17.6512 13.9815 17.6248 14.0411C17.4116 14.9211 16.863 15.5687 16.1988 16.1363C16.1598 16.1702 16.1238 16.2117 16.0908 16.2464C15.5099 16.6042 14.9147 16.9257 14.2273 17.0314L14.0704 17.06L13.7004 17.1H13.07C13.0528 17.0986 13.0358 17.0961 13.019 17.0925C12.6662 16.6804 12.4884 16.2215 12.6437 15.6744C12.8438 15.5476 13.044 15.4203 13.2441 15.2925L13.41 15.1566L14.6498 14.4019L14.8149 14.2947L14.9117 14.2313L15.2645 13.9702L15.4723 13.8124L15.5827 13.7369L15.6945 13.6486C15.7455 13.6094 15.7966 13.5732 15.8446 13.5301L15.9564 13.4434L16.0517 13.3679L16.3197 13.1332L16.4743 13.0056L16.7309 12.8365C16.8112 12.9777 16.9561 13.1181 16.9561 13.26C16.9561 13.5717 17.0424 13.6954 17.3569 13.6834C17.4829 13.6781 17.6098 13.6834 17.7366 13.6834L17.7314 13.8788Z" fill="#E74A9A"/>
<path d="M9.17564 11.8863C9.18014 11.9905 9.18539 12.0946 9.1929 12.2637C9.32102 12.1654 9.45403 12.0737 9.59141 11.989C9.78805 11.8795 9.98543 11.7505 10.1986 11.6977C10.4703 11.6305 10.6158 11.8245 10.5205 12.0909C10.48 12.2041 10.3764 12.2992 10.3524 12.4139C10.3239 12.546 10.3524 12.6901 10.3524 12.829C10.4883 12.8215 10.6526 12.8607 10.7554 12.7981C11.2245 12.5105 11.6666 12.1784 12.1394 11.8977C12.2745 11.8169 12.5349 11.7807 12.6347 11.8577C12.7345 11.9346 12.7638 12.2177 12.6977 12.3445C12.4951 12.7377 12.2219 13.0932 11.9953 13.4766C11.8341 13.7345 11.699 14.0081 11.5923 14.2932C11.548 14.4215 11.587 14.663 11.6786 14.7302C11.7701 14.7974 11.9848 14.7491 12.1386 14.7211C12.2279 14.7045 12.3022 14.6215 12.3893 14.5823C12.724 14.4313 12.8914 14.5407 12.9146 14.9189C12.4643 15.1408 12.0193 15.3845 11.5547 15.577C11.205 15.7227 10.8282 15.8034 10.4635 15.9129C10.2969 15.7327 10.13 15.5528 9.96291 15.3732L9.39253 14.3717L9.33399 14.1128L9.22742 13.8954L9.17564 13.6086L9.07207 12.4184C9.10459 12.2408 9.13911 12.0635 9.17564 11.8863Z" fill="#E367A6"/>
<path d="M13.6967 17.0993L14.0667 17.0601L14.2235 17.0314C14.911 16.928 15.5061 16.6042 16.087 16.2465C16.6942 16.4555 17.3066 16.6495 17.9055 16.8782C18.2057 16.9921 18.4834 17.1642 18.7663 17.3182C18.8571 17.3621 18.9332 17.4317 18.9853 17.5184C19.0374 17.6051 19.0633 17.7052 19.0597 17.8065L18.4263 18.522L18.313 18.6729L18.2545 18.7333C18.1306 18.6971 17.9948 18.6827 17.886 18.6209C16.7459 17.9748 15.5061 17.6284 14.2348 17.3733C14.0209 17.3303 13.8055 17.2978 13.5908 17.2623V17.1559L13.6967 17.0993Z" fill="#B5A2E9"/>
<path d="M9.17564 11.8863C9.14011 12.0639 9.10509 12.2413 9.07057 12.4184C8.54071 12.4365 8.01086 12.4622 7.481 12.4705C7.28826 12.474 7.10142 12.4035 6.95851 12.2734C6.8156 12.1433 6.72736 11.9633 6.71174 11.7701C6.67046 11.2274 7.00594 10.9467 7.42397 10.9059C8.01086 10.8486 8.60451 10.8576 9.1959 10.8448C9.28142 10.8524 9.36578 10.8699 9.44732 10.8969C9.35626 11.2269 9.2657 11.5568 9.17564 11.8863Z" fill="#B5A2E9"/>
<path d="M9.17563 13.6086C9.19364 13.7022 9.21241 13.7966 9.23042 13.8902C8.79879 14.3007 8.47914 14.8158 8.30205 15.386C8.0769 16.1272 8.44014 16.6314 9.2094 16.5687C9.83314 16.526 10.4483 16.3991 11.0384 16.1913C11.7926 15.9129 12.4989 15.506 13.2261 15.1536L13.2449 15.294C13.0447 15.4213 12.8446 15.5486 12.6445 15.6759L11.16 16.4087L9.91338 16.8374L9.8038 16.8638L9.70399 16.8887L9.33474 16.9385L9.22742 16.9582L8.81089 16.9951H8.65629L8.03187 16.8797C7.69489 16.6661 7.59583 16.3514 7.66487 15.974C7.70015 15.7876 7.76694 15.6064 7.81497 15.423C8.17897 14.903 8.53921 14.3807 8.90845 13.8645C8.98938 13.771 9.07883 13.6854 9.17563 13.6086Z" fill="#6D3193"/>
<path d="M16.2191 8.79717C16.7069 8.66962 17.1947 8.52924 17.6826 8.41981C18.0836 8.32443 18.5032 8.34484 18.8931 8.47868C19.3367 8.80472 19.4237 9.0968 19.2294 9.66286C18.9975 10.3368 18.5719 10.8901 18.1186 11.4244C18.006 11.5572 17.894 11.6906 17.7824 11.8244L16.7947 12.7369C16.776 12.6833 16.758 12.629 16.7399 12.5754C17.0964 12.1927 17.4687 11.8206 17.8057 11.4229C18.1884 10.9701 18.5321 10.4787 18.6837 9.88928C18.8466 9.25681 18.5389 8.83718 17.8875 8.79793C17.2759 8.76545 16.6653 8.87817 16.105 9.12699L15.8859 8.95114L16.2191 8.79717Z" fill="#703193"/>
<path d="M17.7314 13.8788C17.7359 13.8139 17.7411 13.749 17.7456 13.6841C17.7956 13.2454 17.8457 12.8066 17.8957 12.3679C18.3355 12.4999 18.7565 12.6773 19.0215 13.069C19.2676 13.429 19.1093 13.9143 18.7093 14.14C18.391 14.3196 17.8875 14.186 17.7314 13.8788Z" fill="#B5A2E9"/>
<path d="M14.8967 20.393C14.6378 20.4534 14.4622 20.5749 14.4344 20.8768C14.4141 21.0926 14.2843 21.1273 14.1395 20.9636C13.9946 20.7998 13.846 20.7243 13.6141 20.7711C13.3822 20.8179 13.3267 20.7168 13.428 20.4798C13.4652 20.3707 13.4929 20.2586 13.5105 20.1447C13.5068 20.1273 13.5038 20.11 13.4993 20.0934L13.4055 19.7296C13.5363 19.7355 13.6675 19.7291 13.7972 19.7107C13.9129 19.6727 14.0242 19.6221 14.1289 19.5598C14.2108 19.5198 14.2911 19.4775 14.3721 19.436C14.4104 19.5175 14.4749 19.5967 14.4809 19.6805C14.481 19.7684 14.5083 19.8541 14.5592 19.9255C14.6101 19.997 14.6819 20.0507 14.7646 20.079C14.9087 20.1326 15.0123 20.2209 14.8967 20.393Z" fill="#6D3193"/>
<path d="M17.895 12.3678C17.8449 12.8061 17.7949 13.2448 17.7449 13.6841C17.618 13.6841 17.4912 13.6788 17.3651 13.6841C17.0506 13.6962 16.9666 13.5724 16.9643 13.2607C16.9643 13.1188 16.818 12.9784 16.7392 12.8373L16.7962 12.7361L17.7839 11.8237L17.895 12.3678Z" fill="#E067A7"/>
<path d="M7.81873 15.4208C7.76694 15.6042 7.70015 15.7853 7.66863 15.9717C7.59958 16.3491 7.69865 16.6616 8.03562 16.8774C8.01236 16.9121 7.99659 16.9657 7.96057 16.9793C7.31664 17.245 6.67196 16.7982 6.71249 16.1159C6.7335 15.7491 7.07423 15.46 7.53203 15.4246C7.62735 15.4147 7.72341 15.4208 7.81873 15.4208Z" fill="#D1B0D3"/>
<path d="M11.16 16.4087L12.6422 15.6804C12.4846 16.2276 12.6625 16.6865 13.0174 17.0986L12.8583 17.1084L12.7615 17.0963L11.16 16.4087Z" fill="#E067A7"/>
<path d="M11.16 16.4087L12.7593 17.0963C12.4793 17.0963 12.1979 17.1121 11.9187 17.1C11.3371 17.0744 10.7554 17.0344 10.1746 17.0012C10.056 16.9944 9.91338 17.0306 9.91338 16.8374L11.16 16.4087Z" fill="#D0AED2"/>
<path d="M21.4681 12.4501L21.8434 12.8652L21.4771 13.2864L21.0906 13.0917C21.0846 12.9649 21.0771 12.7996 21.0703 12.6577C21.2062 12.5852 21.3338 12.5173 21.4681 12.4501Z" fill="#743A96"/>
<path d="M12.8531 17.1053L13.0122 17.0955C13.029 17.0991 13.0461 17.1017 13.0632 17.1031L13.5886 17.1559V17.2608C13.3777 17.2419 13.1661 17.2268 12.9567 17.1997C12.9214 17.1944 12.8899 17.1378 12.8531 17.1053Z" fill="#D0AED2"/>
<path d="M9.70099 16.8857L9.80081 16.8608C9.78505 16.894 9.76853 16.928 9.75202 16.9612L9.70099 16.8857Z" fill="#D0AED2"/>
<path d="M32.3962 22.6798C31.3357 22.9523 30.3458 22.7742 29.4212 22.2021C29.2583 22.1025 29.1037 21.9893 28.9461 21.8821C28.5416 21.4579 28.1813 21.0021 27.9269 20.4692L27.8631 20.2239C28.1401 19.9568 28.4823 19.8413 28.8538 19.7847C29.0098 19.7661 29.1629 19.7278 29.3093 19.6707C29.6095 19.5439 29.6253 19.2639 29.3581 19.0858C29.2568 19.0179 29.133 18.9786 29.0452 18.8964C28.9574 18.8141 28.8343 18.6797 28.85 18.5945C28.8687 18.5308 28.9024 18.4727 28.9483 18.4249C28.9942 18.3772 29.0508 18.3414 29.1135 18.3205C29.4381 18.2689 29.7664 18.2436 30.0951 18.245C30.4951 18.2412 30.8952 18.2797 31.2959 18.2737C31.4738 18.2737 31.6517 18.1861 31.6809 17.9778C31.7102 17.7695 31.5578 17.6435 31.3875 17.5567C31.1856 17.4533 30.9777 17.359 30.7721 17.2623C30.4869 17.128 30.1964 17.005 29.9203 16.8555C29.8786 16.8296 29.8436 16.794 29.8183 16.7517C29.793 16.7094 29.778 16.6617 29.7747 16.6125C29.7852 16.537 29.8947 16.448 29.9803 16.414C30.0809 16.374 30.2099 16.4087 30.3135 16.3725C30.4509 16.325 30.6497 16.2646 30.6835 16.1635C30.7173 16.0623 30.5972 15.8774 30.4936 15.7861C30.3375 15.6525 30.1371 15.571 29.9555 15.4668C30.8111 15.0578 31.6922 15.0615 32.5875 15.3046C32.7309 15.3431 32.8735 15.3868 33.0161 15.4283C33.5932 15.7476 34.1418 16.1076 34.5343 16.6518L34.839 17.0752L35.2143 18.1575C34.8195 18.0911 34.4263 18.0065 34.0285 17.9643C33.8311 17.9416 33.6075 18.0209 33.5782 18.2375C33.5594 18.3794 33.6638 18.556 33.7538 18.6903C33.8559 18.8413 34.0165 18.9469 34.1291 19.0911C34.2053 19.1775 34.2521 19.2861 34.2626 19.4011C34.2731 19.516 34.2469 19.6314 34.1876 19.7303C34.072 19.9334 33.8724 19.9869 33.6623 19.9492C33.4063 19.9032 33.1572 19.8201 32.9058 19.7485C32.2551 19.5628 31.5954 19.4383 30.9162 19.522C30.5897 19.5635 30.4028 19.7334 30.3698 19.9673C30.3368 20.2013 30.4981 20.4458 30.7863 20.5711C31.0182 20.6722 31.2749 20.7258 31.4918 20.8511C31.8931 21.0757 32.2785 21.3279 32.6453 21.6059C32.8907 21.7998 32.851 22.0685 32.5928 22.1719C32.3346 22.2753 32.3121 22.4534 32.3962 22.6798Z" fill="#E6499A"/>
<path d="M32.3962 22.6798C32.3121 22.4534 32.3286 22.2821 32.5928 22.1749C32.857 22.0677 32.893 21.8028 32.6453 21.6088C32.2785 21.3309 31.8931 21.0787 31.4918 20.8541C31.2749 20.7288 31.0182 20.6752 30.7863 20.5741C30.4981 20.448 30.336 20.202 30.3698 19.9703C30.4036 19.7386 30.5897 19.5665 30.9162 19.525C31.5954 19.439 32.2551 19.5635 32.9058 19.7514C33.1572 19.8231 33.4063 19.9061 33.6623 19.9522C33.8686 19.9899 34.0683 19.9363 34.1876 19.7333C34.2469 19.6344 34.2731 19.519 34.2626 19.404C34.2521 19.289 34.2053 19.1804 34.1291 19.094C34.0172 18.9499 33.8566 18.8427 33.7538 18.6933C33.6638 18.5604 33.5594 18.3838 33.5782 18.2404C33.6067 18.0238 33.8304 17.9446 34.0285 17.9672C34.4263 18.0125 34.8195 18.094 35.2143 18.1604C35.2271 18.177 35.2391 18.1944 35.2511 18.211C35.2608 18.2472 35.2706 18.2865 35.2796 18.3197C35.2871 18.3884 35.2954 18.4578 35.3029 18.5272L35.3299 18.7416V19.2118L35.3096 19.3733C35.2991 19.4601 35.2893 19.5461 35.2788 19.6329C35.2698 19.6692 35.2601 19.7084 35.2511 19.7416C35.2421 19.7929 35.2331 19.8443 35.2248 19.8926C35.0444 20.483 34.7572 21.0349 34.3775 21.5205C33.9084 21.9885 33.3913 22.3855 32.7542 22.5968C32.6356 22.633 32.5162 22.6519 32.3962 22.6798Z" fill="#6B2E91"/>
<path d="M29.9548 15.4645C30.1364 15.5687 30.3368 15.6502 30.4929 15.7838C30.5965 15.8721 30.7143 16.0615 30.6828 16.1612C30.6512 16.2608 30.4501 16.3227 30.3128 16.3702C30.2092 16.4064 30.0801 16.3702 29.9795 16.4117C29.894 16.4457 29.7844 16.534 29.7739 16.6102C29.7773 16.6594 29.7922 16.7072 29.8175 16.7494C29.8429 16.7917 29.8778 16.8273 29.9195 16.8533C30.1957 17.0042 30.4861 17.1257 30.7713 17.2601C30.977 17.3567 31.1849 17.451 31.3867 17.5544C31.5571 17.6412 31.711 17.7589 31.6802 17.9755C31.6494 18.1922 31.473 18.2684 31.2952 18.2714C30.8952 18.2774 30.4951 18.2389 30.0944 18.2427C29.7657 18.2414 29.4374 18.2666 29.1127 18.3182C29.0501 18.3391 28.9934 18.3749 28.9475 18.4227C28.9017 18.4704 28.868 18.5285 28.8493 18.5922C28.8335 18.6812 28.9559 18.8141 29.0444 18.8941C29.133 18.9741 29.2561 19.0156 29.3574 19.0835C29.6246 19.2616 29.605 19.5416 29.3086 19.6684C29.1621 19.7255 29.0091 19.7638 28.853 19.7824C28.4815 19.839 28.1393 19.9545 27.8624 20.2216C27.5547 19.4518 27.5742 18.6707 27.7836 17.882C27.8098 17.7808 27.8376 17.6797 27.8646 17.5801C28.1842 16.8434 28.6968 16.2079 29.3476 15.7415L29.9548 15.4645Z" fill="#6B2E91"/>
<path d="M31.3965 10.8923C32.4344 10.8757 33.4716 10.8531 34.5096 10.8448C34.8661 10.8448 35.2233 10.8682 35.5783 10.8991C36.0241 10.9384 36.2875 11.281 36.2748 11.7792C36.2657 12.1505 35.9393 12.4509 35.4957 12.4675C35.2886 12.4758 35.08 12.4267 34.8721 12.4229C34.4615 12.4146 34.0503 12.4063 33.6405 12.4229C32.6236 12.4652 31.6074 12.5218 30.5905 12.5739C30.9787 12.0797 31.2539 11.5056 31.3965 10.8923Z" fill="#B5A2E9"/>
<path d="M29.3484 15.7438C28.6967 16.2099 28.1833 16.8454 27.8631 17.5823C26.9487 17.7817 26.066 18.107 25.2401 18.5491C25.0794 18.6351 24.9077 18.6986 24.7298 18.7378C24.5747 18.7663 24.4146 18.7433 24.2736 18.6722C24.1327 18.6011 24.0186 18.4859 23.9485 18.3438C23.7984 18.0419 23.8322 17.6389 24.0926 17.4578C24.4591 17.2058 24.8463 16.9856 25.2499 16.7996C26.4147 16.2555 27.6642 15.9921 28.9168 15.7513C29.0602 15.7358 29.2046 15.7333 29.3484 15.7438Z" fill="#B5A2E9"/>
<path d="M27.9269 20.4692C28.1813 21.002 28.5416 21.4579 28.9461 21.882C28.0282 22.0549 27.1149 22.2504 26.2541 22.6262C25.8473 22.8036 25.4518 23.0074 25.0533 23.1998C24.678 23.381 24.3628 23.3402 24.0904 23.0715C23.7481 22.7334 23.7849 22.1341 24.2112 21.8956C24.7619 21.5785 25.3354 21.303 25.9268 21.0715C26.576 20.8254 27.2582 20.6662 27.9269 20.4692Z" fill="#B5A2E9"/>
<path d="M31.3267 7.88545L32.222 6.31183C33.0956 6.31183 33.97 6.31183 34.8435 6.31938C35.1133 6.32429 35.3825 6.34318 35.6503 6.37598C35.9205 6.40617 36.2365 6.70882 36.2717 6.94807C36.3333 7.36619 36.1824 7.72017 35.844 7.8379C35.6563 7.90357 35.4402 7.89375 35.2368 7.90809C35.1415 7.91489 35.0454 7.89602 34.9494 7.89602C34.084 7.89602 33.2195 7.89149 32.3541 7.89602C32.102 7.89602 31.8505 7.93602 31.5991 7.94281C31.5064 7.93449 31.415 7.91524 31.3267 7.88545Z" fill="#B5A2E9"/>
<path d="M31.3965 10.8924C31.2537 11.5051 30.9785 12.0787 30.5905 12.5724L30.1064 13.0124L30.0598 12.9724C30.0839 12.8592 30.1086 12.746 30.1349 12.6328C30.2422 12.0373 30.2175 11.4622 29.879 10.9339L29.3664 10.2546L30.9184 8.44324C31.2186 8.77457 31.3282 9.1942 31.3762 9.61459C31.4243 10.035 31.3905 10.4674 31.3965 10.8924Z" fill="#E74E9C"/>
<path d="M34.8383 17.0729L34.5336 16.6495C34.1388 16.103 33.5925 15.7438 33.0153 15.426C33.1038 15.3973 33.1952 15.3786 33.2878 15.3702C34.003 15.3823 34.7175 15.4034 35.4327 15.42C35.8987 15.4313 36.328 15.8434 36.2838 16.263C36.2395 16.6827 35.9693 16.9778 35.5505 17.0004C35.3119 17.0125 35.0754 17.048 34.8383 17.0729Z" fill="#B5A2E9"/>
<path d="M34.3737 21.5183C34.7523 21.0325 35.0386 20.4806 35.218 19.8903C35.3681 19.9281 35.5182 19.9696 35.6683 20.0028C36.0804 20.0926 36.3078 20.4315 36.2688 20.9039C36.241 21.2322 35.8935 21.5221 35.5182 21.5228C35.143 21.5236 34.7565 21.5198 34.3737 21.5183Z" fill="#B5A2E9"/>
<path d="M23.8284 20.0858C23.5965 19.9544 23.4036 20.0405 23.216 20.2299C23.0794 20.3665 22.9548 20.2963 22.9533 20.1212C22.9614 20.0078 22.9332 19.8948 22.8729 19.7987C22.8125 19.7025 22.7232 19.6283 22.6179 19.5869C22.4505 19.5061 22.4595 19.365 22.6344 19.3061C22.8828 19.2231 22.9946 19.0654 23.0321 18.814C23.0607 18.6231 23.195 18.6012 23.3046 18.7423C23.4599 18.9431 23.6235 19.0359 23.887 18.9688C24.0573 18.9273 24.1556 19.048 24.0491 19.2027C23.899 19.4231 23.878 19.6193 24.0116 19.8548C24.0919 19.9982 24.0183 20.0911 23.8284 20.0858Z" fill="#6D3193"/>
<path d="M35.2758 18.3144C35.2668 18.2782 35.2571 18.239 35.2473 18.2057C35.2571 18.242 35.2668 18.2782 35.2758 18.3144Z" fill="#C7A0C9"/>
<path d="M35.2473 19.7364C35.2563 19.7001 35.2661 19.6609 35.2751 19.6277C35.2661 19.6639 35.2563 19.7001 35.2473 19.7364Z" fill="#C7A0C9"/>
<path d="M24.9819 9.98213L25.37 9.47721L25.4773 9.41608C25.6934 9.54287 25.9066 9.67495 26.1265 9.79344C26.2154 9.83415 26.3075 9.86747 26.4019 9.89307H26.5145C26.5655 9.98213 26.5963 10.0946 26.6698 10.1542C26.8702 10.3157 27.0879 10.4561 27.2987 10.607C27.1897 10.8305 27.0806 11.0533 26.9715 11.2757L24.9819 9.98213Z" fill="#E14A9A"/>
<path d="M26.9715 11.2765C27.0801 11.0541 27.1892 10.8312 27.2988 10.6078C27.4136 10.6697 27.5239 10.7331 27.6432 10.7935C27.8184 10.894 28.0167 10.9466 28.2183 10.9458C28.42 10.945 28.6179 10.8909 28.7923 10.7889C28.8673 10.7482 28.9078 10.6546 28.9649 10.5852L29.3641 10.2546L29.8767 10.9338C29.8204 10.9904 29.7709 11.0848 29.7064 11.0969C28.8696 11.2637 28.0305 11.4184 27.1922 11.5754C27.1573 11.5789 27.1222 11.5802 27.0871 11.5791L26.9715 11.2765Z" fill="#E0D7F9"/>
<path d="M28.2331 4.26276C28.234 4.01017 28.2849 3.76029 28.3829 3.52774C28.481 3.29519 28.6242 3.08465 28.8042 2.90845C28.9841 2.73225 29.1972 2.59392 29.431 2.50158C29.6648 2.40923 29.9146 2.36472 30.1657 2.37064C30.6692 2.3768 31.15 2.58228 31.5039 2.94254C31.8578 3.3028 32.0562 3.78881 32.0562 4.29522C32.0434 5.33071 31.1841 6.19338 30.1642 6.19413C29.9104 6.19787 29.6585 6.15054 29.4233 6.05493C29.188 5.95933 28.9741 5.81737 28.7942 5.63742C28.6143 5.45747 28.4719 5.24316 28.3756 5.00708C28.2792 4.77101 28.2308 4.51794 28.2331 4.26276ZM31.4603 4.28239C31.4648 4.10853 31.4346 3.93553 31.3714 3.77365C31.3081 3.61177 31.2133 3.4643 31.0923 3.33999C30.9714 3.21568 30.8268 3.11707 30.6673 3.05C30.5077 2.98292 30.3364 2.94876 30.1634 2.94952C29.9884 2.94357 29.814 2.97293 29.6505 3.03586C29.487 3.09879 29.3376 3.19402 29.2113 3.31593C29.085 3.43784 28.9842 3.58396 28.9149 3.74567C28.8457 3.90738 28.8093 4.08141 28.808 4.25748C28.8048 4.61278 28.9414 4.95495 29.1879 5.20943C29.4345 5.4639 29.7711 5.61004 30.1244 5.616C30.2999 5.61914 30.4742 5.58686 30.637 5.52108C30.7999 5.45529 30.9479 5.35733 31.0725 5.233C31.197 5.10866 31.2955 4.96047 31.3621 4.79719C31.4287 4.63391 31.4621 4.45886 31.4603 4.28239Z" fill="#E16AA8"/>
<path d="M24.9362 7.38964C23.9425 6.90962 23.0524 7.18586 22.1421 7.83568C22.1863 7.67493 22.2043 7.58889 22.2336 7.50737C22.7102 6.16394 24.0258 5.20769 25.4533 5.16769C25.6364 5.16241 25.8203 5.16769 26.0041 5.16769C26.007 5.19289 26.0057 5.21838 26.0004 5.24317C25.6476 5.95966 25.2929 6.67515 24.9362 7.38964Z" fill="#E74E9C"/>
<path d="M26.5122 9.89758H26.3997C26.4477 9.79796 26.5025 9.70135 26.5422 9.59569C26.6045 9.43191 26.6571 9.2636 26.7134 9.09756C26.7917 9.02032 26.8619 8.93507 26.9228 8.84321C27.3045 8.12622 27.682 7.40695 28.0553 6.68543C28.1558 6.49146 28.3059 6.39561 28.5213 6.42127C28.6145 6.4273 28.7021 6.46768 28.7675 6.53467C28.8328 6.60166 28.8713 6.69054 28.8756 6.7843C28.8773 6.92095 28.8326 7.0541 28.7487 7.16166C28.2759 7.76545 27.7873 8.36018 27.3085 8.96095C27.2169 9.07567 27.1441 9.20473 27.0623 9.327C26.8807 9.51669 26.6973 9.70688 26.5122 9.89758Z" fill="#E36EAA"/>
<path d="M26.5122 9.89764C26.6963 9.70644 26.8797 9.51524 27.0623 9.32404L28.9626 10.586C28.9056 10.6554 28.8628 10.749 28.79 10.7897C28.6157 10.8917 28.4178 10.9458 28.2161 10.9466C28.0144 10.9474 27.8161 10.8948 27.641 10.7943C27.5254 10.7339 27.4113 10.6705 27.2965 10.6086C27.0856 10.4576 26.868 10.3203 26.6676 10.1558C26.5963 10.0991 26.5655 9.98669 26.5122 9.89764Z" fill="#6D3193"/>
<path d="M26.7156 9.09758C26.6593 9.26362 26.6068 9.43193 26.5445 9.5957C26.5047 9.6991 26.4499 9.79571 26.4019 9.8976C26.3075 9.87199 26.2154 9.83867 26.1265 9.79797C25.9066 9.67721 25.6934 9.54514 25.4773 9.4206C24.9677 9.08626 24.6292 8.65908 24.7125 8.00397L24.8311 7.87189L26.7156 9.09758Z" fill="#6D3193"/>
<path d="M24.711 7.99945C24.6277 8.65456 24.9662 9.08174 25.4758 9.41609L25.3685 9.47723C25.2539 9.5119 25.1414 9.55297 25.0315 9.60025C24.8424 9.69688 24.6236 9.7166 24.4204 9.65533C24.2172 9.59407 24.0453 9.45651 23.9403 9.27118C23.7609 8.95268 23.8915 8.48097 24.23 8.26134C24.3846 8.16172 24.5519 8.08549 24.711 7.99945Z" fill="#B5A2E9"/>
<path d="M15.8859 8.9504L16.105 9.1255L16.3009 9.31721L16.52 9.43947C16.5703 9.50815 16.6161 9.58212 16.6701 9.64552C17.0401 10.0465 17.3354 10.511 17.5422 11.0169C17.3058 11.3271 17.0919 11.6561 16.8278 11.9422C16.0182 12.8225 15.0919 13.5865 14.0749 14.2124C13.5616 14.0147 13.4497 13.7596 13.6997 13.263C14.0509 12.5543 14.5732 11.9799 15.1699 11.4727C15.4131 11.2659 15.654 11.0652 15.6412 10.7014C15.6322 10.4553 15.4618 10.2274 15.2209 10.2206C15.0078 10.2138 14.7939 10.2652 14.58 10.2916C14.5634 10.2963 14.5471 10.3021 14.5312 10.3089C14.3113 10.3716 14.0629 10.4674 13.9136 10.2244C13.783 10.0108 13.8182 9.77156 13.9939 9.56929C14.2228 9.30664 14.4524 9.04097 14.6776 8.77757C14.7429 8.7021 14.7946 8.61002 14.8524 8.52549L14.9072 8.5036L15.0078 8.52624L15.8859 8.9504Z" fill="#E367A6"/>
<path d="M14.0772 14.2124C15.0944 13.5866 16.021 12.8226 16.8308 11.9422C17.0934 11.6561 17.3088 11.3271 17.5452 11.0169C17.6878 10.715 17.8664 10.4184 17.9633 10.0991C17.9896 10.0257 17.9987 9.94716 17.99 9.86961C17.9812 9.79206 17.9549 9.71757 17.913 9.6519C17.871 9.58623 17.8146 9.53115 17.7481 9.49091C17.6816 9.45067 17.6068 9.42636 17.5295 9.41986C17.2 9.37609 16.854 9.43043 16.5208 9.44175L16.3009 9.3142C16.3354 9.26741 16.3602 9.19269 16.4037 9.1791C16.9231 9.01683 17.4499 8.87721 17.9993 8.96249C18.4586 9.03797 18.65 9.34892 18.5464 9.80327C18.4256 10.3316 18.1216 10.7603 17.7959 11.1754C17.0266 12.1633 16.0855 12.9732 15.0941 13.7226C13.7034 14.7709 12.2167 15.6547 10.5498 16.1853C10.0995 16.3231 9.63265 16.3983 9.16213 16.4087C8.52495 16.4276 8.22625 16.0102 8.46266 15.4238C8.63677 14.9928 8.91896 14.6041 9.16213 14.2019C9.1914 14.1528 9.27545 14.1377 9.33399 14.1068L9.39253 14.3656C9.16213 14.6615 8.99626 14.983 8.98876 15.3687C8.98876 15.6879 9.10359 15.9038 9.39778 15.9355C9.74827 15.9732 10.1078 15.9204 10.4635 15.9068C10.8282 15.7974 11.205 15.7166 11.5547 15.571C12.0193 15.3785 12.4621 15.1347 12.9146 14.9128L14.0772 14.2124Z" fill="#733092"/>
<path d="M14.9065 8.50361L14.8517 8.52549L13.7462 8.26435C14.1484 8.21797 14.5549 8.30179 14.9065 8.50361Z" fill="#C8A1CB"/>
<path d="M15.8859 8.95041L15.007 8.52625C15.2067 8.55493 15.4093 8.57153 15.6074 8.61606C15.8153 8.66285 16.0172 8.73531 16.2213 8.7972L15.8859 8.95041Z" fill="#C8A1CB"/>
<path d="M9.33399 14.1075C9.27545 14.1385 9.1914 14.1536 9.16213 14.2026C8.91896 14.6049 8.63678 14.9936 8.46266 15.4245C8.22625 16.011 8.52495 16.4283 9.16213 16.4095C9.63255 16.3997 10.0994 16.3253 10.5498 16.1883C12.2167 15.66 13.7019 14.7739 15.0941 13.7256C16.0878 12.9762 17.0289 12.1663 17.7959 11.1784C18.1194 10.7633 18.4233 10.3338 18.5464 9.80627C18.65 9.35343 18.4586 9.03871 17.9993 8.9655C17.4499 8.87719 16.9231 9.01984 16.4037 9.18211C16.3602 9.19569 16.3354 9.27041 16.3009 9.3172L16.105 9.1255C16.6654 8.87727 17.2759 8.76481 17.8875 8.79719C18.5389 8.83644 18.8466 9.25607 18.6837 9.88854C18.5336 10.478 18.1884 10.9671 17.8057 11.4222C17.4687 11.8222 17.0964 12.192 16.7399 12.5746L16.4352 12.8471L16.3227 12.949L16.054 13.1898L15.8694 13.3513L15.8506 13.3588L15.6082 13.5633L15.5219 13.62L15.4693 13.6607L15.3733 13.7279L15.2727 13.7958L15.1616 13.8834L14.8202 14.14L14.7999 14.1483L14.622 14.2886C14.2468 14.5196 13.8655 14.7475 13.4963 14.9853C13.4505 15.0147 13.4392 15.0992 13.4122 15.1589L13.2276 15.1543C12.5004 15.5068 11.7941 15.9136 11.0399 16.1921C10.4498 16.3999 9.83464 16.5268 9.21091 16.5695C8.44165 16.6321 8.07615 16.1279 8.30355 15.3868C8.48064 14.8165 8.80029 14.3014 9.23192 13.8909C9.26344 13.9626 9.29872 14.0351 9.33399 14.1075Z" fill="#C63E96"/>
<path d="M13.4092 15.1588C13.4362 15.0992 13.4475 15.0147 13.4933 14.9853C13.8685 14.7475 14.2438 14.5196 14.6228 14.2886C14.631 14.3264 14.64 14.3641 14.649 14.4011L13.4092 15.1588Z" fill="#7F2D91"/>
<path d="M16.4352 12.8471L16.7399 12.5746C16.758 12.6282 16.776 12.6826 16.7947 12.7362L16.7377 12.8373L16.481 13.0064L16.4352 12.8471Z" fill="#7F2D91"/>
<path d="M13.5908 17.1559L13.0655 17.1031H13.6959L13.5908 17.1559Z" fill="#C69CC8"/>
<path d="M16.054 13.1898L16.3227 12.949C16.3227 13.0109 16.3227 13.0721 16.3264 13.1339L16.0585 13.3687L16.054 13.1898Z" fill="#7F2D91"/>
<path d="M14.8194 14.14L15.1616 13.8834L15.2645 13.9694L14.911 14.2305L14.8194 14.14Z" fill="#703193"/>
<path d="M16.3264 13.1339C16.3264 13.072 16.3264 13.0109 16.3227 12.949L16.4352 12.8471C16.4502 12.8999 16.466 12.9528 16.481 13.0064L16.3264 13.1339Z" fill="#703193"/>
<path d="M15.6082 13.5626L15.8506 13.3588C15.8506 13.4169 15.8506 13.4743 15.8506 13.5317C15.8003 13.5717 15.7493 13.6109 15.7005 13.6502L15.6082 13.5626Z" fill="#703193"/>
<path d="M14.649 14.4011C14.64 14.3634 14.631 14.3256 14.6228 14.2886L14.7999 14.1483C14.8051 14.1966 14.8096 14.2456 14.8142 14.2939L14.649 14.4011Z" fill="#703193"/>
<path d="M13.2231 15.1551L13.4077 15.1596L13.2419 15.2955C13.2358 15.2487 13.2283 15.2011 13.2231 15.1551Z" fill="#7F2D91"/>
<path d="M16.054 13.1898L16.0585 13.3686L15.9632 13.4441L15.8694 13.3505L16.054 13.1898Z" fill="#703193"/>
<path d="M15.2727 13.7958L15.3733 13.7279L15.4746 13.8117L15.2667 13.9694C15.269 13.9113 15.2705 13.8532 15.2727 13.7958Z" fill="#703193"/>
<path d="M15.4693 13.6608L15.5219 13.62L15.5872 13.7385L15.4769 13.814C15.4738 13.7611 15.4716 13.7113 15.4693 13.6608Z" fill="#703193"/>
<path d="M15.5872 13.7385L15.5219 13.62L15.6082 13.5634L15.699 13.6502L15.5872 13.7385Z" fill="#7F2D91"/>
<path d="M15.2727 13.7958C15.2727 13.8532 15.269 13.9113 15.2667 13.9694L15.1646 13.8834L15.2727 13.7958Z" fill="#7F2D91"/>
<path d="M15.8694 13.3513L15.9632 13.4448L15.8551 13.5316C15.8551 13.4743 15.8551 13.4169 15.8551 13.3588L15.8694 13.3513Z" fill="#7F2D91"/>
<path d="M14.8142 14.2954C14.8097 14.2471 14.8051 14.1981 14.7999 14.1498L14.8202 14.1415L14.911 14.232L14.8142 14.2954Z" fill="#7F2D91"/>
<path d="M15.4693 13.6607C15.4693 13.7113 15.4738 13.7611 15.4769 13.8117L15.3755 13.7279L15.4693 13.6607Z" fill="#7F2D91"/>
<path d="M10.4635 15.9076C10.1078 15.9212 9.74827 15.974 9.39779 15.9363C9.10359 15.9046 8.98951 15.6887 8.98876 15.3694H9.96441C10.13 15.5481 10.2964 15.7274 10.4635 15.9076Z" fill="#D0AED2"/>
<path d="M9.96291 15.3679H8.98726C8.99476 14.9822 9.16062 14.6607 9.39103 14.3649C9.58216 14.7005 9.77278 15.0348 9.96291 15.3679Z" fill="#C69CC8"/>
<path d="M31.4603 4.28239C31.4621 4.45887 31.4287 4.63392 31.3621 4.7972C31.2955 4.96048 31.197 5.10867 31.0725 5.233C30.9479 5.35734 30.7999 5.4553 30.637 5.52108C30.4742 5.58687 30.2999 5.61915 30.1244 5.61601C29.7711 5.61005 29.4345 5.46391 29.1879 5.20943C28.9414 4.95496 28.8048 4.61278 28.808 4.25749C28.8091 4.08129 28.8453 3.9071 28.9145 3.74521C28.9837 3.58332 29.0844 3.43702 29.2108 3.31495C29.3371 3.19288 29.4865 3.09751 29.6502 3.03449C29.8138 2.97147 29.9883 2.94206 30.1634 2.94802C30.3365 2.94725 30.5079 2.98146 30.6676 3.04863C30.8273 3.11579 30.9719 3.21454 31.0928 3.33901C31.2138 3.46348 31.3087 3.61113 31.3718 3.77319C31.4349 3.93525 31.465 4.10841 31.4603 4.28239Z" fill="#6B2E91"/>
<path d="M16.5201 9.4395C16.857 9.42818 17.1955 9.37384 17.5287 9.41761C17.6061 9.42411 17.6809 9.44842 17.7474 9.48866C17.8139 9.52889 17.8703 9.58398 17.9122 9.64965C17.9541 9.71532 17.9805 9.78981 17.9892 9.86736C17.9979 9.94491 17.9888 10.0234 17.9625 10.0969C17.8657 10.4161 17.6871 10.7097 17.5445 11.0146C17.3377 10.5087 17.0423 10.0443 16.6724 9.64328C16.6161 9.58214 16.5703 9.50818 16.5201 9.4395Z" fill="#C69CC8"/>
</g>
<defs>
<clipPath id="clip0_1398_5809">
<rect width="43" height="30" fill="white"/>
</clipPath>
</defs>
</svg>
